<svg width="1920" height="1080" viewBox="0 0 1920 1080" fill="none" xmlns="http://www.w3.org/2000/svg">
<path d="M429.55 712.471C427.628 712.745 415.138 714.392 392.079 717.412C386.314 717.961 376.295 719.059 362.02 720.706L291.609 513.588V729.353C273.491 731.275 252.491 734.157 228.608 738V342.706H287.491L367.785 567.117V342.706H429.55V712.471ZM551.432 487.647C559.668 487.647 573.942 487.372 594.256 486.823L633.785 486.412V548.176C594.256 548.176 566.805 548.588 551.432 549.412V641.235C561.315 640.686 568.452 640.137 572.844 639.588C611.825 636.843 641.06 635.196 660.55 634.647V693.941L489.668 707.529V342.706H660.55V404.47H551.432V487.647ZM826.08 404.47V688.588C798.354 688.588 777.766 688.863 764.315 689.412V404.47H700.491V342.706H890.315V404.47H826.08ZM1075.2 483.117V544.882H990.786V685.294H929.844V342.706H1102.79V404.47H990.786V483.117H1075.2ZM1202.84 630.941C1214.37 631.216 1227.14 631.765 1241.14 632.588C1255.41 633.412 1265.16 633.961 1270.37 634.235C1287.67 635.333 1300.16 636.02 1307.84 636.294V697.647C1240.32 692.98 1184.73 690.235 1141.08 689.412V342.706H1202.84V630.941ZM1372.9 702.588C1394.32 703.686 1410.24 704.922 1420.67 706.294V342.706H1360.14V701.765L1372.9 702.588ZM1612.96 530.882L1691.2 738C1679.94 736.353 1665.39 734.02 1647.55 731L1621.61 726.882L1577.55 612.412L1532.26 717.412C1518.53 715.216 1505.22 713.569 1492.32 712.471C1479.96 711.373 1471.18 710.412 1465.96 709.588L1545.43 528.412L1473.37 342.706H1540.08L1580.43 446.47L1623.67 342.706H1691.2L1612.96 530.882Z" fill="#E50914"/>
</svg>
